<svg preserveAspectRatio="none" width="100%" height="100%" overflow="visible" style="display: block;" viewBox="0 0 20 20" fill="none" xmlns="http://www.w3.org/2000/svg">
<g id="&#229;&#136;&#183;&#230;&#150;&#176; 2">
<path id="Vector" d="M12.1408 9.26032L11.3692 8.1975L13.5619 6.60554C13.4589 6.49725 13.3522 6.39428 13.2416 6.29663L14.1072 5.30978C14.4561 5.61582 14.7721 5.96113 15.0457 6.33976L15.4315 6.87117L12.1408 9.26032ZM5.8939 14.6969C5.5462 14.3925 5.23045 14.0457 4.95539 13.6669L4.56957 13.1355L7.85861 10.7475L8.63048 11.8089L6.43778 13.4009C6.54073 13.5092 6.64749 13.6121 6.75829 13.7083L5.8939 14.6969Z" fill="var(--fill-0, #8C9098)"/>
<path id="Vector_2" d="M4.39605 11.5812C4.12551 11.5383 3.89943 11.3274 3.85146 11.0409C3.45639 8.68964 4.40937 6.35807 6.33865 4.95864C8.71072 3.23646 11.9064 3.38034 14.108 5.31088C14.3801 5.54984 14.4076 5.96505 14.1686 6.23711C13.9297 6.50916 13.5159 6.53692 13.2424 6.29773C11.5041 4.77446 8.98302 4.66053 7.10907 6.01979C5.58524 7.12612 4.8334 8.96606 5.14662 10.8238C5.20695 11.1819 4.96656 11.519 4.60844 11.5793C4.53654 11.5931 4.46549 11.5922 4.39605 11.5812ZM9.01993 16.164C7.66579 15.9491 6.37949 15.2881 5.39334 14.2031C5.14972 13.9345 5.16963 13.5194 5.43675 13.2756C5.70387 13.0317 6.12041 13.0518 6.36426 13.319C8.0526 15.1754 10.8595 15.4608 12.8929 13.9845C14.4151 12.8794 15.1671 11.038 14.8553 9.18047C14.795 8.82235 15.0356 8.48381 15.3935 8.42493C15.7514 8.36605 16.09 8.60667 16.1491 8.96312C16.5454 11.3161 15.5926 13.6462 13.6631 15.0471C12.2748 16.0563 10.6027 16.4152 9.01993 16.164Z" fill="var(--fill-0, #8C9098)"/>
</g>
</svg>
