<svg preserveAspectRatio="none" width="100%" height="100%" overflow="visible" style="display: block;" viewBox="0 0 21.6795 22.7972" fill="none" xmlns="http://www.w3.org/2000/svg">
<g id="Group 2090055084">
<path id="Subtract" d="M4.88965 0.0244833C5.34925 -0.037235 6.15273 0.0229476 6.60059 0.146554C11.4913 1.49687 11.8615 9.3232 7.76953 11.7384C7.83963 12.135 7.90703 12.5324 7.97266 12.9298L8.49023 16.2676C8.62826 17.1309 8.9684 18.864 8.89844 19.6485C8.84546 20.2465 8.63286 20.8197 8.2832 21.3077C7.65635 22.1742 6.79335 22.5945 5.7627 22.7579C5.56098 22.7882 5.35627 22.8014 5.15234 22.796C4.14452 22.7698 3.20939 22.3931 2.51758 21.6505C2.04104 21.1372 1.73447 20.489 1.63965 19.795C1.54762 19.098 1.72412 18.214 1.83691 17.5098L2.42969 13.8682C2.52897 13.2914 2.74845 12.2612 2.76758 11.7305C2.36673 11.4892 2.0109 11.159 1.69434 10.8165C-1.42908 7.43687 -0.159667 0.618396 4.88965 0.0244833ZM6.24805 12.3624C5.62804 12.4705 4.92284 12.4656 4.30078 12.3731C4.0503 13.9757 3.78544 15.5762 3.50488 17.1739C3.33892 18.1691 2.90699 19.489 3.52539 20.3331C3.86566 20.7899 4.37454 21.0918 4.93848 21.1719C5.34662 21.2305 5.70751 21.184 6.09082 21.043C6.95552 20.6045 7.17541 20.2061 7.39746 19.2774C7.23612 18.6832 7.13214 17.8363 7.03613 17.212L6.55859 14.2618C6.46853 13.6939 6.36885 12.9066 6.24805 12.3624ZM5.6084 10.8467C10.6658 9.97034 9.63672 1.08105 5.03711 1.59675C-0.0941833 2.59255 0.906853 11.1381 5.6084 10.8467Z" fill="var(--fill-0, #1B1D21)"/>
<path id="Subtract_2" d="M20.4179 0.633353C20.6593 0.389151 21.4288 0.554321 21.5311 0.873587C21.7763 1.63867 21.6407 3.09185 21.6522 3.89507C21.6713 5.22476 21.6639 6.5041 21.6454 7.81304C21.6219 9.46338 20.8819 10.8834 19.4657 11.7496C19.5457 12.1616 19.5863 12.4421 19.6259 12.8599C19.8353 14.2121 20.6864 18.9838 20.5057 19.9585C20.331 20.8537 19.8134 21.6457 19.0634 22.1646C18.2572 22.7195 17.2583 22.866 16.3065 22.688C15.4211 22.516 14.6413 21.9968 14.1405 21.2466C13.6864 20.5735 13.4687 19.7076 13.5985 18.9039C13.9783 16.5514 14.2226 14.0813 14.6854 11.7505C13.8326 11.2509 12.7375 9.98616 12.6561 8.98199C12.4445 6.36644 12.551 3.633 12.5858 1.0064C12.5889 0.798084 12.8925 0.628793 13.0429 0.536673C14.3839 0.43411 14.1198 1.58443 14.1151 2.5396L14.1073 6.04644C14.1051 6.67313 14.0699 7.86816 14.1757 8.42827C14.2606 8.87069 14.4381 9.29024 14.6972 9.65874C15.6298 10.9763 17.5301 11.218 18.827 10.2847C19.3681 9.88895 19.7612 9.32343 19.9432 8.67827C20.0822 8.17754 20.0476 7.40277 20.0468 6.8648L20.0311 3.18316C20.0278 2.5326 19.854 1.06466 20.4179 0.633353ZM15.5448 16.5435C15.4089 17.4329 15.1491 18.6504 15.1835 19.522C15.2358 20.8471 16.7621 21.4976 17.9042 20.982C18.3927 20.6876 18.7581 20.367 18.9081 19.7906C19.1257 18.9535 18.1471 13.6717 17.9364 12.3853C17.442 12.4579 16.6649 12.4637 16.1679 12.3824L15.5448 16.5435Z" fill="var(--fill-0, #1B1D21)"/>
<path id="Vector" d="M16.8321 0.535365C16.9381 0.52957 17.0844 0.52209 17.1883 0.530519C17.3899 0.546955 17.576 0.645048 17.7035 0.802091C17.9448 1.10232 17.9255 1.47478 17.9229 1.84392C17.9086 3.84976 17.9574 5.86134 17.9032 7.8656C17.8936 8.2213 17.6897 8.40822 17.4338 8.61009C16.7785 8.75233 16.3439 8.52817 16.3457 7.80976C16.3514 5.55036 16.2776 3.26194 16.3754 1.0066C16.3846 0.794083 16.6672 0.636249 16.8321 0.535365Z" fill="var(--fill-0, #1B1D21)"/>
</g>
</svg>
