<svg width="32" height="32" viewBox="0 0 32 32" fill="none" xmlns="http://www.w3.org/2000/svg">
<g clip-path="url(#clip0_1569_15149)">
<path d="M15.9255 7C14.2681 7 10.7544 7 9.95883 7C9.16328 7 8.96439 7 7.96995 7.99444C6.97551 8.98888 5.84267 10.5514 4.98663 12.4694C4.48609 13.5909 3.99212 14.4583 3.99219 15.4527C3.99225 16.4472 3.99219 19.9277 3.99219 22.4138C3.99219 24.8999 6.47822 25.3971 6.47822 25.3971C6.47822 25.3971 8.46717 25.3971 9.95883 25.3971C11.4505 25.3971 10.9533 21.9166 12.4449 21.9166C13.9366 21.9166 15.9255 21.9166 15.9255 21.9166" stroke="#1B1D21" stroke-width="1.88" stroke-linecap="round"/>
<path d="M15.9251 7C17.5825 7 21.0962 7 21.8918 7C22.6873 7 22.8862 7 23.8806 7.99444C24.8751 8.98888 26.0079 10.5514 26.864 12.4694C27.3645 13.5909 27.8585 14.4583 27.8584 15.4527C27.8583 16.4472 27.8584 19.9277 27.8584 22.4138C27.8584 24.8999 25.3724 25.3971 25.3724 25.3971C25.3724 25.3971 23.3834 25.3971 21.8918 25.3971C20.4001 25.3971 20.8973 21.9166 19.4057 21.9166C17.914 21.9166 15.9251 21.9166 15.9251 21.9166" stroke="#1B1D21" stroke-width="1.88" stroke-linecap="round"/>
<path d="M2.5 13.9614H5.48332C5.48332 13.9614 11.4679 15.8808 15.4277 15.9503C19.769 16.0265 26.3666 13.9614 26.3666 13.9614H29.3499" stroke="#1B1D21" stroke-width="1.88" stroke-linecap="round"/>
</g>
<defs>
<clipPath id="clip0_1569_15149">
<rect width="32" height="32" fill="white"/>
</clipPath>
</defs>
</svg>
